<svg xmlns="http://www.w3.org/2000/svg" viewBox="0 0 128 128" role="img" aria-labelledby="title">
  <title id="title">KubeOptix</title>
  <defs>
    <linearGradient id="blue" x1="24" y1="14" x2="98" y2="112" gradientUnits="userSpaceOnUse">
      <stop stop-color="#3b8cff" />
      <stop offset="1" stop-color="#0757c9" />
    </linearGradient>
    <linearGradient id="cube" x1="56" y1="47" x2="75" y2="70" gradientUnits="userSpaceOnUse">
      <stop stop-color="#45a4ff" />
      <stop offset="1" stop-color="#0865df" />
    </linearGradient>
  </defs>
  <path fill="url(#blue)" fill-rule="evenodd" d="M64 5 108 28l11 48-31 38H40L9 76l11-48L64 5Zm0 22a36 36 0 1 0 0 72 36 36 0 0 0 0-72Z" />
  <g stroke="url(#blue)" stroke-width="8" stroke-linecap="round">
    <path d="M64 17v17M31 31l12 12M16 64h18M31 97l12-12M97 31 85 43M112 64H94M97 97 85 85" />
  </g>
  <path fill="#082d5c" stroke="#5aa8ff" stroke-width="2" d="m64 39 27 15v31L64 100 37 85V54l27-15Z" />
  <path fill="url(#cube)" d="m64 46 12 7-12 7-12-7 12-7Z" />
  <path fill="#0870ec" d="m52 53 12 7v14l-12-7V53Z" />
  <path fill="#0756c3" d="m76 53-12 7v14l12-7V53Z" />
  <path fill="#fff" d="m51 68 12 7-12 7-12-7 12-7Zm26 0 12 7-12 7-12-7 12-7Z" />
  <path fill="#dceeff" d="m39 75 12 7v13l-12-7V75Zm26 0 12 7v13l-12-7V75Z" />
  <path fill="#b8dcff" d="m63 75-12 7v13l12-7V75Zm26 0-12 7v13l12-7V75Z" />
  <path fill="#06244a" d="M49 102h10v15H49zm15-9h10v24H64zm15-15h10v39H79z" />
  <path fill="none" stroke="#1680f5" stroke-width="5" stroke-linecap="round" stroke-linejoin="round" d="M20 105c25 23 69 22 91-9" />
  <path fill="#1680f5" d="m106 91 15-6-4 16-4-7-7-3Z" />
</svg>
